<svg xmlns="http://www.w3.org/2000/svg"
 xmlns:xlink="http://www.w3.org/1999/xlink"
 width="498px" height="18px"  viewBox="0 0 498 18">
<path fill-rule="evenodd"  fill="#cad4de"
 d="M0.99993896,1.0 C0.99993896,1.0 1.9999084,1.0 1.9999084,1.0 C1.9999084,1.0 1.9999084,15.999756 1.9999084,15.999756 C1.9999084,15.999756 0.99993896,15.999756 0.99993896,15.999756 C0.99993896,15.999756 0.99993896,1.0 0.99993896,1.0 ZM23.999908,1.0 C23.999908,1.0 24.999908,1.0 24.999908,1.0 C24.999908,1.0 24.999908,9.0 24.999908,9.0 C24.999908,9.0 23.999908,9.0 23.999908,9.0 C23.999908,9.0 23.999908,1.0 23.999908,1.0 ZM45.99994,1.0 C45.99994,1.0 46.99991,1.0 46.99991,1.0 C46.99991,1.0 46.99991,15.999756 46.99991,15.999756 C46.99991,15.999756 45.99994,15.999756 45.99994,15.999756 C45.99994,15.999756 45.99994,1.0 45.99994,1.0 ZM68.99991,1.0 C68.99991,1.0 69.99991,1.0 69.99991,1.0 C69.99991,1.0 69.99991,9.0 69.99991,9.0 C69.99991,9.0 68.99991,9.0 68.99991,9.0 C68.99991,9.0 68.99991,1.0 68.99991,1.0 ZM90.99994,1.0 C90.99994,1.0 91.99991,1.0 91.99991,1.0 C91.99991,1.0 91.99991,15.999756 91.99991,15.999756 C91.99991,15.999756 90.99994,15.999756 90.99994,15.999756 C90.99994,15.999756 90.99994,1.0 90.99994,1.0 ZM113.99991,1.0 C113.99991,1.0 114.99991,1.0 114.99991,1.0 C114.99991,1.0 114.99991,9.0 114.99991,9.0 C114.99991,9.0 113.99991,9.0 113.99991,9.0 C113.99991,9.0 113.99991,1.0 113.99991,1.0 ZM135.99994,1.0 C135.99994,1.0 136.99988,1.0 136.99988,1.0 C136.99988,1.0 136.99988,15.999756 136.99988,15.999756 C136.99988,15.999756 135.99994,15.999756 135.99994,15.999756 C135.99994,15.999756 135.99994,1.0 135.99994,1.0 ZM158.99994,1.0 C158.99994,1.0 159.99988,1.0 159.99988,1.0 C159.99988,1.0 159.99988,9.0 159.99988,9.0 C159.99988,9.0 158.99994,9.0 158.99994,9.0 C158.99994,9.0 158.99994,1.0 158.99994,1.0 ZM180.99994,1.0 C180.99994,1.0 181.99988,1.0 181.99988,1.0 C181.99988,1.0 181.99988,15.999756 181.99988,15.999756 C181.99988,15.999756 180.99994,15.999756 180.99994,15.999756 C180.99994,15.999756 180.99994,1.0 180.99994,1.0 ZM203.99994,1.0 C203.99994,1.0 204.99988,1.0 204.99988,1.0 C204.99988,1.0 204.99988,9.0 204.99988,9.0 C204.99988,9.0 203.99994,9.0 203.99994,9.0 C203.99994,9.0 203.99994,1.0 203.99994,1.0 ZM225.99994,1.0 C225.99994,1.0 226.99988,1.0 226.99988,1.0 C226.99988,1.0 226.99988,15.999756 226.99988,15.999756 C226.99988,15.999756 225.99994,15.999756 225.99994,15.999756 C225.99994,15.999756 225.99994,1.0 225.99994,1.0 ZM248.99994,1.0 C248.99994,1.0 249.99988,1.0 249.99988,1.0 C249.99988,1.0 249.99988,9.0 249.99988,9.0 C249.99988,9.0 248.99994,9.0 248.99994,9.0 C248.99994,9.0 248.99994,1.0 248.99994,1.0 ZM270.99994,1.0 C270.99994,1.0 271.99988,1.0 271.99988,1.0 C271.99988,1.0 271.99988,15.999756 271.99988,15.999756 C271.99988,15.999756 270.99994,15.999756 270.99994,15.999756 C270.99994,15.999756 270.99994,1.0 270.99994,1.0 ZM293.99994,1.0 C293.99994,1.0 294.99988,1.0 294.99988,1.0 C294.99988,1.0 294.99988,9.0 294.99988,9.0 C294.99988,9.0 293.99994,9.0 293.99994,9.0 C293.99994,9.0 293.99994,1.0 293.99994,1.0 ZM315.99994,1.0 C315.99994,1.0 316.99988,1.0 316.99988,1.0 C316.99988,1.0 316.99988,15.999756 316.99988,15.999756 C316.99988,15.999756 315.99994,15.999756 315.99994,15.999756 C315.99994,15.999756 315.99994,1.0 315.99994,1.0 ZM338.99994,1.0 C338.99994,1.0 339.99988,1.0 339.99988,1.0 C339.99988,1.0 339.99988,9.0 339.99988,9.0 C339.99988,9.0 338.99994,9.0 338.99994,9.0 C338.99994,9.0 338.99994,1.0 338.99994,1.0 ZM360.99994,1.0 C360.99994,1.0 361.99988,1.0 361.99988,1.0 C361.99988,1.0 361.99988,15.999756 361.99988,15.999756 C361.99988,15.999756 360.99994,15.999756 360.99994,15.999756 C360.99994,15.999756 360.99994,1.0 360.99994,1.0 ZM383.99994,1.0 C383.99994,1.0 384.99988,1.0 384.99988,1.0 C384.99988,1.0 384.99988,9.0 384.99988,9.0 C384.99988,9.0 383.99994,9.0 383.99994,9.0 C383.99994,9.0 383.99994,1.0 383.99994,1.0 ZM405.99994,1.0 C405.99994,1.0 406.99988,1.0 406.99988,1.0 C406.99988,1.0 406.99988,15.999756 406.99988,15.999756 C406.99988,15.999756 405.99994,15.999756 405.99994,15.999756 C405.99994,15.999756 405.99994,1.0 405.99994,1.0 ZM428.99994,1.0 C428.99994,1.0 429.99988,1.0 429.99988,1.0 C429.99988,1.0 429.99988,9.0 429.99988,9.0 C429.99988,9.0 428.99994,9.0 428.99994,9.0 C428.99994,9.0 428.99994,1.0 428.99994,1.0 ZM450.99994,1.0 C450.99994,1.0 451.99988,1.0 451.99988,1.0 C451.99988,1.0 451.99988,15.999756 451.99988,15.999756 C451.99988,15.999756 450.99994,15.999756 450.99994,15.999756 C450.99994,15.999756 450.99994,1.0 450.99994,1.0 ZM473.99994,1.0 C473.99994,1.0 474.99988,1.0 474.99988,1.0 C474.99988,1.0 474.99988,9.0 474.99988,9.0 C474.99988,9.0 473.99994,9.0 473.99994,9.0 C473.99994,9.0 473.99994,1.0 473.99994,1.0 ZM495.99994,2.0 C495.99994,2.0 496.99988,2.0 496.99988,2.0 C496.99988,2.0 496.99988,16.999756 496.99988,16.999756 C496.99988,16.999756 495.99994,16.999756 495.99994,16.999756 C495.99994,16.999756 495.99994,2.0 495.99994,2.0 Z"/>
</svg>